<?xml version="1.0" encoding="UTF-8"?><svg id="Layer_1" xmlns="http://www.w3.org/2000/svg" xmlns:xlink="http://www.w3.org/1999/xlink" viewBox="0 0 48 48"><defs><style>.cls-1{fill:url(#linear-gradient-2);}.cls-2{fill:url(#linear-gradient-6);}.cls-3{fill:url(#linear-gradient-5);}.cls-4{fill:url(#linear-gradient-3);}.cls-5{fill:url(#linear-gradient);}.cls-6{fill:url(#linear-gradient-4);}</style><linearGradient id="linear-gradient" x1="33.2" y1="44.89" x2="22.18" y2="5.9" gradientUnits="userSpaceOnUse"><stop offset="0" stop-color="#f29600"/><stop offset=".21" stop-color="#e95515"/><stop offset=".5" stop-color="#bf0080"/><stop offset=".72" stop-color="#5f1a85"/><stop offset="1" stop-color="#004399"/></linearGradient><linearGradient id="linear-gradient-2" x1="41.11" y1="42.66" x2="30.09" y2="3.66" xlink:href="#linear-gradient"/><linearGradient id="linear-gradient-3" x1="44.28" y1="41.76" x2="33.26" y2="2.77" xlink:href="#linear-gradient"/><linearGradient id="linear-gradient-4" x1="36.86" y1="22.68" x2="25.85" y2="-16.32" gradientTransform="translate(1.24 48.38) rotate(-15.3)" xlink:href="#linear-gradient"/><linearGradient id="linear-gradient-5" x1="36.84" y1="23.73" x2="17.78" y2="58.87" gradientUnits="userSpaceOnUse"><stop offset="0" stop-color="#f29600"/><stop offset=".21" stop-color="#e95515"/><stop offset=".5" stop-color="#bf0080"/><stop offset="1" stop-color="#5f1a85"/></linearGradient><linearGradient id="linear-gradient-6" x1="40.63" y1="42.79" x2="29.62" y2="3.8" xlink:href="#linear-gradient"/></defs><path class="cls-5" d="M39.43,23.01c-.84-1.48-2.19-2.73-3.76-3.44-.06-.03-.13-.05-.2-.08-.79-.33-1.64-.53-2.5-.55-2.35-.05-4.81,.93-6.54,2.49-1.39,1.25-2.08,2.85-2.27,4.64-.03,.24-.04,.49-.05,.74-.02,.64,.13,1.13,.37,1.49,.02,.03,.03,.07,.05,.1,.03,.05,.08,.1,.11,.15,.74,1.01,2.18,1.27,3.33,.57,1.09-.67,1.52-1.98,1.07-3.08-.03-.06-.06-.12-.09-.18-.03-.09-.09-.19-.15-.31-.2-.42-.42-1.02-.03-1.61,.05-.07,.09-.15,.16-.22,.94-.88,2.28-1.27,3.51-.98,.63,.15,1.22,.46,1.72,1,.69,.75,1.14,1.67,1.41,2.68,1,3.77-.74,8.76-4,10.52-2.26,1.22-4.34,.71-6.02-.58-1.51-1.17-2.7-2.97-3.37-4.77-.72-1.92-1.13-3.84-1.27-5.78-.14-1.88-.02-3.78,.32-5.73,.19-1.05,.41-2.09,.65-3.12,.18-.75,.48-1.49-.04-2.1-.05-.06-.13-.11-.22-.14-.26-.11-.66-.11-1.14,.01-.85,.22-1.95,.87-2.97,2.15-1.28,1.61-2.19,4.67-1.99,8.25,.02,.31,.04,.62,.07,.93,.47,5.22,2.57,11.15,6.41,14.74,.55,.52,1.15,.99,1.78,1.42,2.55,1.71,5.65,2.54,8.67,1.43,2.31-.85,4.25-2.42,5.62-4.46,3.03-4.55,4.13-11.26,1.34-16.19Z"/><g><path class="cls-1" d="M36.45,18.24c.24-.83-.23-1.7-1.06-1.94-.83-.24-1.7,.23-1.94,1.06-.24,.81-.75,1.62-1.33,2.33,1.01,.35,1.99,.82,2.9,1.34,.6-.83,1.12-1.78,1.42-2.79Z"/><path class="cls-4" d="M39.45,19.29c-.76-.4-1.71-.1-2.11,.66-.23,.43-.54,.84-.9,1.23,.98,.53,1.89,1.11,2.69,1.66,.37-.45,.71-.93,.98-1.45,.4-.76,.1-1.71-.66-2.11Z"/></g><path class="cls-6" d="M26.94,8.05c-1.27-1.69-3.25-2.58-5.33-2.76-1.29-.12-2.77,.08-3.98,.53-4.19,1.54-7.55,5.8-9.25,9.8-1.23,2.89-1.69,6.08-1.27,9.17,.29,2.08,.73,4.98,2.45,6.41,.75,.62,4.68,1.42,3.86-.53-.61-1.44-1.1-2.88-1.3-4.45-.52-4.13,.45-7,1.74-9.45,1.38-2.63,3.07-4.7,4.96-5.77,1.55-.88,3.88-1.89,5.41-.61,1.78,1.48,1.95,3.54,2.08,4.79,.05,.46,.11,.91,.1,1.38-.01,.51-.08,1.02-.1,1.54,0,.22-.06,.5,.13,.67,.32,.29,1.8-.79,2.08-1.12,.28-.34,.37-.78,.4-1.21,.05-.71,.1-1.42,.04-2.12-.02-.32-.05-.66-.11-.98-.31-1.84-1.11-4.19-1.94-5.28Z"/><path class="cls-3" d="M32.11,37.82c3.01-1.01,5.6-4.99,5-9.52-.19-1.47-.93-2.83-1.95-3.94-.66-.72-2.07-1.47-2.7-1.62,.02,.02,.05,.04,.07,.06,.69,.75,1.14,1.68,1.41,2.68,1,3.77-.74,8.76-4,10.51-1.57,.85-3.05,.86-4.37,.36,1.68,1.3,4.15,2.27,6.54,1.47Z"/><path class="cls-2" d="M35.82,8.38c-.08-.82-.55-1.4-1.24-2.07-.84-.8-2.3-1.85-4.77-2.32-1.43-.27-3.12-.14-4.56,.1-.19,.03-.49,.15-.4,.4,.08,.21,.33,.26,.52,.3,.26,.06,.52,.14,.77,.24,1.24,.52,2.11,1.4,2.73,2.44h0s.19,.46,1,.56h0c1.13,.11,2.24,.35,3.3,.72,.79,.28,2.79,1.31,2.63-.39Z"/></svg>